<?xml version="1.0" standalone="no"?>
<svg width="1000" height="1000" cX="0" cY="0" bgcolor="#FFF" repeat="2"  version="1.1" xmlns="http://www.w3.org/2000/svg"><path fill="#FE8472"
   d="M283.64,516.103l-9.247,0.658c-8.499,0.88-16.246,2.64-23.745,5.058c-7.247,2.416-13.246,6.15-17.245,10.984l-17.996,20.436l-0.25,0.218c-5,5.934-9.748,12.307-13.998,19.117c-4.248,6.591-8.248,15.38-11.997,26.366c4.749,2.855,10.249,5.491,16.247,7.907l23.244,8.79v2.197l1.25,0.439l1.998-27.244l-1.998,27.244l-2.75,40.43l-0.25,10.766l-2.499,69.212l0.25,0.881l0,0l28.993,6.592l34.492,5.493l13.499,1.098l23.244,0.438l22.242-1.099l28.245-3.515l22.993-4.613c5.25-1.317,8.999-2.416,10.748-3.295l0.749-0.662l0.749-1.535l0.501-36.694l-0.254-14.5l-0.746-14.723l-1-29.005l-0.752-16.698l-0.747-8.568l0.249-0.219l-1.75-30.543l1.75,30.543l40.74-14.723l3.248-1.538l-12.746-25.928c-4.001-7.25-8.498-14.501-13.498-21.973l-0.249-0.439c-4.999-7.251-10.497-13.402-15.998-18.455c-5.998-4.834-13.496-8.569-22.493-10.986c-9.244-2.637-18.496-4.394-27.741-5.272l-50.99-2.856L283.64,516.103zM320.632,594.104l11.495,0.438c4.002,1.318,7.001,3.516,8.998,6.811c1.999,3.298,1.999,7.69-0.25,13.624c-2.499,5.493-5.997,9.229-10.497,10.985c-4.751,1.979-9.249,2.198-13.997,1.32c-5-1.1-9.249-3.295-12.748-6.813l-1.751-2.196v0.221l-3.5-3.734c-2.248-2.639-4.248-5.274-5.998-8.35c-1.999-3.297-2.499-6.154-2.25-8.789c0.75-2.198,1.999-3.518,3.25-3.736l3.999,0.22l1.749,1.099l0.249,0.659c0.75-4.832,2-8.788,3.5-12.084c2.998-5.714,6.25-8.128,9.498-7.251c3.249,1.318,4.497,3.735,3.999,7.251l-3.25,15.381C314.384,596.741,316.882,594.984,320.632,594.104z M337.879,628.161l2.748-0.439l5.5-0.658l11.247-0.44c4.25,0.221,7.246,1.1,9.745,2.858c1.503,1.758,2.5,3.296,2.252,4.395c-0.749,1.099-1.498,1.976-2.5,2.855l-2.001,0.879c4.251,2.637,7.248,5.491,9.748,8.351c4.25,5.054,4.998,8.568,2.25,10.765c-2.749,1.759-5.749,1.538-8.995-0.438l-13.5-10.325c1.75,2.197,2.252,5.054,1.252,8.128c-1.001,3.295-3.249,6.154-6.248,8.57c-3.249,2.415-6.999,3.515-11.248,3.515c-4.247-0.22-8.748-2.416-12.996-6.811c-4.249-4.613-6.249-9.008-5.75-13.402c0.252-4.616,2.252-8.57,6-11.646C328.631,631.238,332.88,629.26,337.879,628.161z M282.392,628.382l5.25-1.099l2.75-0.661c5.247-0.877,9.996-0.218,14.496,1.539c4.749,1.758,8.248,4.615,10.499,8.789c2.249,3.734,2.249,8.57,0.498,14.281c-2.498,5.492-5.498,9.011-9.246,10.547l-11.999,0.661c-3.748-1.32-6.997-3.077-9.497-5.935c-2.25-2.637-2.999-5.273-2.25-8.129l-8.248,14.063c-1.999,3.074-4.75,4.395-8.247,3.733c-2.25-0.878-3.25-2.636-3.25-5.713s1.25-7.031,3.5-11.646l2.748-4.834v0.22l-2.25-0.22c-1.251-0.22-2.249-0.657-3.249-1.537c-0.75-1.101-0.75-2.639,0-4.834c1.5-2.418,4-4.396,7.499-5.932C275.395,630.14,279.143,629.04,282.392,628.382z" /></svg>
